<svg xmlns="http://www.w3.org/2000/svg" width="64" height="64" viewBox="0 0 64 64" role="img" aria-labelledby="title desc">
  <title id="title">Gemini for Codex composer icon</title>
  <desc id="desc">Gemini app sparkle mark with a compact Codex badge.</desc>
  <defs>
    <clipPath id="sparkle-clip">
      <path d="M31 6c2.6 11.1 6.6 17.5 13 22 4.3 3 9.5 4.8 15 6-11.1 2.6-17.5 6.6-22 13-3 4.3-4.8 9.5-6 15-2.6-11.1-6.6-17.5-13-22-4.3-3-9.5-4.8-15-6 11.1-2.6 17.5-6.6 22-13 3-4.3 4.8-9.5 6-15Z"/>
    </clipPath>
    <filter id="color-blend" x="-30%" y="-30%" width="160%" height="160%">
      <feGaussianBlur stdDeviation="2.2"/>
    </filter>
  </defs>
  <rect width="64" height="64" rx="14" fill="#F8FAFC"/>
  <g clip-path="url(#sparkle-clip)">
    <rect x="3" y="6" width="56" height="56" fill="#4285F4"/>
    <circle cx="31" cy="6" r="14" fill="#EA4335" filter="url(#color-blend)"/>
    <circle cx="4" cy="34" r="17" fill="#FBBC04" filter="url(#color-blend)"/>
    <circle cx="31" cy="60" r="18" fill="#34A853" filter="url(#color-blend)"/>
  </g>
  <rect x="41" y="41" width="18" height="18" rx="5" fill="#111827" stroke="#FFFFFF" stroke-width="2"/>
  <path d="m48 47-3.2 2.8 3.2 2.8M52 47l3.2 2.8-3.2 2.8" fill="none" stroke="#E5E7EB" stroke-width="2.1" stroke-linecap="round" stroke-linejoin="round"/>
</svg>
