<svg xmlns="http://www.w3.org/2000/svg" width="1024" height="1024" viewBox="0 0 1024 1024" role="img" aria-labelledby="title desc">
  <title id="title">Gemini for Codex logo</title>
  <desc id="desc">A Codex plugin logo based on the Gemini app sparkle mark with a small code badge.</desc>
  <defs>
    <clipPath id="sparkle-clip">
      <path d="M512 118c37 155 92 246 181 307 60 41 132 67 213 87-155 37-246 92-307 181-41 60-67 132-87 213-37-155-92-246-181-307-60-41-132-67-213-87 155-37 246-92 307-181 41-60 67-132 87-213Z"/>
    </clipPath>
    <linearGradient id="badge-bg" x1="668" y1="668" x2="916" y2="916" gradientUnits="userSpaceOnUse">
      <stop offset="0" stop-color="#111827"/>
      <stop offset="1" stop-color="#1E293B"/>
    </linearGradient>
    <filter id="color-blend" x="-30%" y="-30%" width="160%" height="160%">
      <feGaussianBlur stdDeviation="34"/>
    </filter>
    <filter id="shadow" x="-18%" y="-18%" width="136%" height="136%">
      <feDropShadow dx="0" dy="28" stdDeviation="32" flood-color="#111827" flood-opacity=".22"/>
    </filter>
  </defs>
  <rect width="1024" height="1024" rx="192" fill="#F8FAFC"/>
  <path d="M512 118c37 155 92 246 181 307 60 41 132 67 213 87-155 37-246 92-307 181-41 60-67 132-87 213-37-155-92-246-181-307-60-41-132-67-213-87 155-37 246-92 307-181 41-60 67-132 87-213Z" fill="#4285F4" filter="url(#shadow)"/>
  <g clip-path="url(#sparkle-clip)">
    <rect x="108" y="112" width="808" height="808" fill="#4285F4"/>
    <circle cx="510" cy="112" r="210" fill="#EA4335" filter="url(#color-blend)"/>
    <circle cx="130" cy="512" r="260" fill="#FBBC04" filter="url(#color-blend)"/>
    <circle cx="512" cy="848" r="300" fill="#34A853" filter="url(#color-blend)"/>
    <circle cx="810" cy="520" r="260" fill="#4285F4" filter="url(#color-blend)"/>
    <path d="M512 118c37 155 92 246 181 307 60 41 132 67 213 87-155 37-246 92-307 181-41 60-67 132-87 213-37-155-92-246-181-307-60-41-132-67-213-87 155-37 246-92 307-181 41-60 67-132 87-213Z" fill="#FFFFFF" opacity=".06"/>
  </g>
  <rect x="704" y="704" width="188" height="188" rx="54" fill="url(#badge-bg)" stroke="#FFFFFF" stroke-width="14"/>
  <path d="m770 765-40 34 40 34" fill="none" stroke="#E5E7EB" stroke-width="21" stroke-linecap="round" stroke-linejoin="round"/>
  <path d="m824 765 40 34-40 34" fill="none" stroke="#E5E7EB" stroke-width="21" stroke-linecap="round" stroke-linejoin="round"/>
  <path d="m808 754-24 90" fill="none" stroke="#93C5FD" stroke-width="18" stroke-linecap="round"/>
</svg>
