<svg xmlns="http://www.w3.org/2000/svg" width="1024" height="1024" viewBox="0 0 1024 1024" role="img" aria-labelledby="title desc">
  <title id="title">Claude for Codex logo</title>
  <desc id="desc">A rounded square plugin logo with the Claude app icon helping the Codex cloud-terminal app icon.</desc>
  <rect width="1024" height="1024" rx="170" fill="#F6F7F9"/>
  <rect x="112" y="176" width="446" height="548" rx="90" fill="#FFFFFF"/>
  <rect x="424" y="292" width="448" height="448" rx="90" fill="#FFFFFF"/>
  <path d="M238 752c64-42 120-74 182-100" fill="none" stroke="#D97757" stroke-width="10" stroke-linecap="round" opacity=".45"/>
  <rect x="152" y="216" width="366" height="468" rx="76" fill="#EFE7D8"/>
  <g fill="#D97757" transform="translate(335 450)">
    <rect x="-15" y="-96" width="30" height="192" rx="15" transform="rotate(4)"/>
    <rect x="-15" y="-96" width="30" height="192" rx="15" transform="rotate(34)"/>
    <rect x="-15" y="-96" width="30" height="192" rx="15" transform="rotate(64)"/>
    <rect x="-15" y="-96" width="30" height="192" rx="15" transform="rotate(94)"/>
    <rect x="-15" y="-96" width="30" height="192" rx="15" transform="rotate(124)"/>
    <rect x="-15" y="-96" width="30" height="192" rx="15" transform="rotate(154)"/>
  </g>
  <g>
    <path d="M622 392c27-56 91-74 143-36 66-3 116 47 113 109 39 30 50 86 24 130-17 36-54 57-96 53-28 35-77 49-120 30-44 24-101 12-130-28-50 3-92-35-94-84-28-33-24-84 10-112 19-38 62-61 150-62Z" fill="#5275FF"/>
    <path d="M622 392c27-56 91-74 143-36 66-3 116 47 113 109 39 30 50 86 24 130-17 36-54 57-96 53-28 35-77 49-120 30-44 24-101 12-130-28-50 3-92-35-94-84-28-33-24-84 10-112 19-38 62-61 150-62Z" fill="url(#codexGradient)"/>
    <path d="M613 480l50 71-50 71" fill="none" stroke="#FFFFFF" stroke-width="44" stroke-linecap="round" stroke-linejoin="round"/>
    <path d="M720 560h106" fill="none" stroke="#FFFFFF" stroke-width="34" stroke-linecap="round"/>
  </g>
  <defs>
    <linearGradient id="codexGradient" x1="540" x2="820" y1="360" y2="690" gradientUnits="userSpaceOnUse">
      <stop offset="0" stop-color="#B8A8FF"/>
      <stop offset=".52" stop-color="#5275FF"/>
      <stop offset="1" stop-color="#2035FF"/>
    </linearGradient>
  </defs>
</svg>
