<svg xmlns="http://www.w3.org/2000/svg" width="64" height="64" viewBox="0 0 64 64" role="img" aria-labelledby="title desc">
  <title id="title">Antigravity for Codex composer icon</title>
  <desc id="desc">Compact joint Antigravity arch and Codex cloud terminal mark.</desc>
  <defs>
    <linearGradient id="arch" x1="6" y1="45" x2="46" y2="10" gradientUnits="userSpaceOnUse">
      <stop offset="0" stop-color="#4285F4"/>
      <stop offset=".35" stop-color="#4285F4"/>
      <stop offset=".55" stop-color="#34A853"/>
      <stop offset=".76" stop-color="#FBBC04"/>
      <stop offset="1" stop-color="#EA4335"/>
    </linearGradient>
    <linearGradient id="cloud" x1="31" y1="25" x2="59" y2="59" gradientUnits="userSpaceOnUse">
      <stop offset="0" stop-color="#B7B4FF"/>
      <stop offset=".5" stop-color="#5A8DFF"/>
      <stop offset="1" stop-color="#2A2DFF"/>
    </linearGradient>
  </defs>
  <rect width="64" height="64" rx="14" fill="#FFFFFF"/>
  <path d="M7 45c8.5-6.2 10.8-18 13.7-26.2 1.8-4.9 4.2-7.9 7.4-7.9 3.4 0 5.9 3.3 7.7 8.5 2.8 8.1 5.1 19.3 13.4 25.5" fill="none" stroke="url(#arch)" stroke-width="8.2" stroke-linecap="round" stroke-linejoin="round"/>
  <path d="M49 28c-3.4-3.3-7.5-4.6-12.2-3.6-3.9.8-6.9 3-9 6.5-5 .1-8.7 2.4-10.9 6.7-2.1 4.2-1.4 8.5 2 12.8 1.9 2.4 4.8 3.7 8.6 3.9h22.1c5.5-.4 9-3.5 10-8.7.6-3.4-.3-6.5-2.6-9.2.3-3.5-1.6-6.6-8-8.4Z" fill="url(#cloud)"/>
  <path d="m28 36 4 6-4 6" fill="none" stroke="#FFFFFF" stroke-width="4.2" stroke-linecap="round" stroke-linejoin="round"/>
  <path d="M40 45h8" fill="none" stroke="#FFFFFF" stroke-width="4.2" stroke-linecap="round"/>
</svg>
