<svg xmlns="http://www.w3.org/2000/svg" width="1024" height="1024" viewBox="0 0 1024 1024" role="img" aria-labelledby="title desc">
  <title id="title">Antigravity for Codex logo</title>
  <desc id="desc">A dual-tile joint Antigravity and Codex plugin logo with the Antigravity arch and the Codex cloud terminal mark.</desc>
  <defs>
    <linearGradient id="arch" x1="116" y1="684" x2="520" y2="210" gradientUnits="userSpaceOnUse">
      <stop offset="0" stop-color="#4285F4"/>
      <stop offset=".35" stop-color="#4285F4"/>
      <stop offset=".56" stop-color="#34A853"/>
      <stop offset=".76" stop-color="#FBBC04"/>
      <stop offset="1" stop-color="#EA4335"/>
    </linearGradient>
    <linearGradient id="cloud" x1="530" y1="342" x2="858" y2="810" gradientUnits="userSpaceOnUse">
      <stop offset="0" stop-color="#B8B4FF"/>
      <stop offset=".5" stop-color="#5D8EFF"/>
      <stop offset="1" stop-color="#2F32FF"/>
    </linearGradient>
    <filter id="shadow" x="-20%" y="-20%" width="140%" height="140%">
      <feDropShadow dx="0" dy="28" stdDeviation="30" flood-color="#111827" flood-opacity=".18"/>
    </filter>
  </defs>
  <rect width="1024" height="1024" rx="192" fill="#F8FAFC"/>
  <rect x="100" y="178" width="438" height="590" rx="132" fill="#FFFFFF" filter="url(#shadow)"/>
  <path d="M136 682c92-68 116-196 147-285 20-58 48-95 84-95 39 0 69 41 90 102 31 90 56 216 148 278" fill="none" stroke="url(#arch)" stroke-width="76" stroke-linecap="round" stroke-linejoin="round"/>
  <rect x="450" y="286" width="420" height="500" rx="128" fill="#FFFFFF" filter="url(#shadow)"/>
  <path d="M762 408c-36-38-83-55-138-50-54 5-96 32-126 80-56-3-102 14-136 52-34 38-46 85-35 141 13 66 62 106 134 110h266c72-5 119-46 130-113 7-46-6-87-38-123 3-38-16-72-57-97Z" fill="url(#cloud)"/>
  <path d="m502 514 43 65-43 65" fill="none" stroke="#FFFFFF" stroke-width="40" stroke-linecap="round" stroke-linejoin="round"/>
  <path d="M632 622h96" fill="none" stroke="#FFFFFF" stroke-width="40" stroke-linecap="round"/>
</svg>
