<svg xmlns="http://www.w3.org/2000/svg" width="1024" height="1024" viewBox="0 0 1024 1024" role="img" aria-labelledby="title desc">
  <title id="title">Antigravity for Codex logo</title>
  <desc id="desc">A Codex plugin logo based on the Antigravity app arch mark with a small code badge.</desc>
  <defs>
    <linearGradient id="antigravity-arch" x1="232" y1="720" x2="792" y2="226" gradientUnits="userSpaceOnUse">
      <stop offset="0" stop-color="#4285F4"/>
      <stop offset=".28" stop-color="#4285F4"/>
      <stop offset=".5" stop-color="#34A853"/>
      <stop offset=".72" stop-color="#FBBC04"/>
      <stop offset="1" stop-color="#EA4335"/>
    </linearGradient>
    <linearGradient id="badge-bg" x1="668" y1="668" x2="916" y2="916" gradientUnits="userSpaceOnUse">
      <stop offset="0" stop-color="#111827"/>
      <stop offset="1" stop-color="#1E293B"/>
    </linearGradient>
    <filter id="shadow" x="-18%" y="-18%" width="136%" height="136%">
      <feDropShadow dx="0" dy="22" stdDeviation="24" flood-color="#111827" flood-opacity=".14"/>
    </filter>
  </defs>
  <rect width="1024" height="1024" rx="192" fill="#FFFFFF"/>
  <path d="M232 716c134-98 167-284 212-413 26-74 58-120 102-120 46 0 80 49 107 126 45 130 79 311 211 407" fill="none" stroke="url(#antigravity-arch)" stroke-width="110" stroke-linecap="round" stroke-linejoin="round" filter="url(#shadow)"/>
  <path d="M232 716c134-98 167-284 212-413 26-74 58-120 102-120 46 0 80 49 107 126 45 130 79 311 211 407" fill="none" stroke="#FFFFFF" stroke-width="18" stroke-linecap="round" opacity=".18"/>
  <rect x="730" y="730" width="164" height="164" rx="48" fill="url(#badge-bg)" stroke="#FFFFFF" stroke-width="12"/>
  <path d="m784 783-34 29 34 29" fill="none" stroke="#E5E7EB" stroke-width="18" stroke-linecap="round" stroke-linejoin="round"/>
  <path d="m832 783 34 29-34 29" fill="none" stroke="#E5E7EB" stroke-width="18" stroke-linecap="round" stroke-linejoin="round"/>
  <path d="m818 772-20 80" fill="none" stroke="#A7F3D0" stroke-width="16" stroke-linecap="round"/>
</svg>
